<?xml version="1.0" encoding="UTF-8"?>
<svg xmlns="http://www.w3.org/2000/svg" id="Ebene_5" data-name="Ebene 5" viewBox="0 0 313.92 210.32">
  <defs>
    <style>
      .cls-1 {
        fill: #1d1e1b;
      }

      .cls-2, .cls-3 {
        fill: #000100;
      }

      .cls-2, .cls-4 {
        fill-rule: evenodd;
      }

      .cls-4 {
        fill: #ff6033;
      }
    </style>
  </defs>
  <g>
    <rect class="cls-3" x="118.03" y="183.01" width="5.51" height="26.24" transform="translate(-31.75 23.53) rotate(-9.84)"></rect>
    <rect class="cls-3" x="60.12" y="189.07" width="26.23" height="5.51" transform="translate(-132.08 194.34) rotate(-69.81)"></rect>
    <polygon class="cls-2" points="25.91 174.81 22.39 170.58 42.51 153.77 46.04 158.01 25.91 174.81"></polygon>
    <rect class="cls-3" x="1.06" y="118.16" width="26.21" height="5.51" transform="translate(-20.41 4.19) rotate(-9.82)"></rect>
    <rect class="cls-3" x="15.71" y="60.21" width="5.51" height="26.21" transform="translate(-56.72 65.4) rotate(-69.85)"></rect>
    <polygon class="cls-2" points="35.46 25.93 39.69 22.4 56.47 42.55 52.24 46.08 35.46 25.93"></polygon>
    <rect class="cls-3" x="86.54" y="1.05" width="5.51" height="26.24" transform="translate(-1.11 15.47) rotate(-9.84)"></rect>
    <rect class="cls-3" x="123.72" y="15.72" width="26.23" height="5.51" transform="translate(72.26 140.52) rotate(-69.81)"></rect>
    <polygon class="cls-2" points="174.61 184.37 170.38 187.9 153.6 167.75 157.83 164.22 174.61 184.37"></polygon>
    <rect class="cls-3" x="105.59" y="6.92" width="16.4" height="2.75" transform="translate(95.26 120.87) rotate(-84.82)"></rect>
    <polygon class="cls-2" points="157.4 33.15 155.15 31.56 164.58 18.15 166.84 19.74 157.4 33.15"></polygon>
    <rect class="cls-3" x="144.45" y="185.23" width="2.75" height="16.4" transform="translate(-67.8 79.22) rotate(-24.86)"></rect>
    <rect class="cls-3" x="88.08" y="200.65" width="16.4" height="2.75" transform="translate(-113.61 279.69) rotate(-84.82)"></rect>
    <polygon class="cls-2" points="52.67 177.17 54.92 178.76 45.48 192.17 43.23 190.58 52.67 177.17"></polygon>
    <rect class="cls-3" x="8.67" y="144.63" width="16.39" height="2.76" transform="translate(-59.69 20.54) rotate(-24.8)"></rect>
    <rect class="cls-3" x="6.9" y="88.2" width="2.76" height="16.38" transform="translate(-88.47 95.97) rotate(-84.84)"></rect>
    <polygon class="cls-2" points="33.11 52.73 31.53 54.99 18.13 45.54 19.72 43.29 33.11 52.73"></polygon>
    <rect class="cls-3" x="62.86" y="8.69" width="2.75" height="16.4" transform="translate(-1.15 28.57) rotate(-24.86)"></rect>
    <rect class="cls-3" x="105.59" y="6.92" width="16.4" height="2.75" transform="translate(95.26 120.87) rotate(-84.82)"></rect>
  </g>
  <g>
    <path class="cls-1" d="M102.46,137.94c-.1-1.84-.78-3.43-2.92-3.43-2.99,0-3.38,3.28-3.38,7.33s.39,7.33,3.38,7.33,3.21-3.58,3.21-5.91h-3.46v-1.76h5.42v9.09h-1.62v-2.38h-.05c-.47,1.5-1.86,2.72-3.77,2.72-4.56,0-5.37-4.39-5.37-9.09,0-4.41.81-9.09,5.64-9.09s5.15,4.29,5.17,5.2h-2.25Z"></path>
    <path class="cls-1" d="M109.88,133.08h5.66c2.75,0,4.48,1.62,4.48,4.39,0,1.91-.66,3.92-2.7,4.41v.05c1.52.17,2.38,1.42,2.48,2.92l.15,2.99c.1,1.94.42,2.43.93,2.74h-2.6c-.37-.37-.54-1.67-.59-2.52l-.15-2.72c-.17-2.4-1.5-2.55-2.6-2.55h-2.92v7.79h-2.16v-17.5ZM112.04,141.02h2.13c1.27,0,3.6,0,3.6-3.38,0-1.71-1.15-2.79-3.16-2.79h-2.57v6.17Z"></path>
    <path class="cls-1" d="M125.46,133.08h2.16v12.3c0,2.57.83,3.77,2.96,3.77,2.3,0,2.99-1.32,2.99-3.77v-12.3h2.16v12.3c0,3.36-1.72,5.54-5.15,5.54s-5.12-1.94-5.12-5.54v-12.3Z"></path>
    <path class="cls-1" d="M140.95,133.08h5.37c2.28,0,4.48,1.08,4.48,4.48,0,1.59-.96,3.19-2.55,3.65v.05c2.16.51,3.11,2.16,3.11,4.31,0,3.55-2.01,5-5.66,5h-4.75v-17.5ZM143.1,140.63h2.47c.91,0,2.97-.22,2.97-2.92,0-1.81-.91-2.87-3.01-2.87h-2.43v5.78ZM143.1,148.81h2.94c2.28,0,3.06-1.54,3.06-3.23,0-2.4-1.54-3.33-3.43-3.33h-2.57v6.57Z"></path>
    <path class="cls-1" d="M156.24,133.08h9.04v1.91h-6.89v5.49h6.49v1.91h-6.49v6.27h7.18v1.91h-9.34v-17.5Z"></path>
    <path class="cls-1" d="M170.15,133.08h5.66c2.74,0,4.48,1.62,4.48,4.39,0,1.91-.66,3.92-2.7,4.41v.05c1.52.17,2.38,1.42,2.47,2.92l.15,2.99c.1,1.94.42,2.43.93,2.74h-2.6c-.37-.37-.54-1.67-.59-2.52l-.15-2.72c-.17-2.4-1.5-2.55-2.6-2.55h-2.92v7.79h-2.16v-17.5ZM172.31,141.02h2.13c1.27,0,3.6,0,3.6-3.38,0-1.71-1.15-2.79-3.16-2.79h-2.57v6.17Z"></path>
    <path class="cls-1" d="M202.66,145.73c.34-.88.56-1.86.69-3.41h1.91c0,1.27-.76,4.24-1.42,5.1l2.25,3.16h-2.33l-1.18-1.64c-1.35,1.27-2.43,1.98-4.31,1.98-4.26,0-5.2-3.26-5.2-4.85,0-1.81.96-3.43,2.38-4.53l1.27-.96-.54-.88c-.64-.98-1.27-1.96-1.27-3.19,0-2.06,1.64-3.43,3.63-3.43,2.21,0,3.7.96,3.7,3.33,0,1.71-1.2,2.82-2.4,3.82l-.64.54,3.46,4.95ZM197.74,141.9c-1.4.83-2.5,2.16-2.5,3.99,0,2.13,1.5,3.26,3.21,3.26,1.37,0,2.3-.74,3.14-1.69l-3.85-5.56ZM198.77,139.04c.78-.76,1.57-1.45,1.57-2.62,0-1-.74-1.72-1.76-1.72s-1.74.71-1.74,1.72c0,.78.51,1.67,1.05,2.47l.42.59.47-.44Z"></path>
    <path class="cls-1" d="M218.54,133.08h4.46c1.52,0,5.42,0,5.42,5.02,0,3.26-2.08,5.07-5.05,5.07h-2.67v7.4h-2.16v-17.5ZM220.69,141.41h2.57c1.57,0,2.89-1.08,2.89-3.41,0-1.91-.91-3.16-3.04-3.16h-2.43v6.57Z"></path>
    <path class="cls-1" d="M232.89,133.08h9.04v1.91h-6.89v5.49h6.49v1.91h-6.49v6.27h7.18v1.91h-9.34v-17.5Z"></path>
    <path class="cls-1" d="M252.13,150.58h-2.16v-15.59h-4.39v-1.91h10.95v1.91h-4.41v15.59Z"></path>
    <path class="cls-1" d="M266.04,150.58h-2.16v-15.59h-4.39v-1.91h10.95v1.91h-4.41v15.59Z"></path>
    <path class="cls-1" d="M274.64,133.08h9.04v1.91h-6.89v5.49h6.49v1.91h-6.49v6.27h7.18v1.91h-9.34v-17.5Z"></path>
    <path class="cls-1" d="M288.56,133.08h5.66c2.75,0,4.48,1.62,4.48,4.39,0,1.91-.66,3.92-2.7,4.41v.05c1.52.17,2.38,1.42,2.47,2.92l.15,2.99c.1,1.94.42,2.43.93,2.74h-2.6c-.37-.37-.54-1.67-.59-2.52l-.15-2.72c-.17-2.4-1.5-2.55-2.6-2.55h-2.92v7.79h-2.16v-17.5ZM290.72,141.02h2.13c1.27,0,3.6,0,3.6-3.38,0-1.71-1.15-2.79-3.16-2.79h-2.57v6.17Z"></path>
    <path class="cls-1" d="M311.27,137.62c0-1.84-.66-3.11-2.72-3.11-1.81,0-2.89.98-2.89,2.84,0,4.93,8.26,1.99,8.26,8.38,0,4.04-2.96,5.2-5.44,5.2-4.09,0-5.29-2.11-5.29-5.83h2.16c0,1.96.12,4.07,3.28,4.07,1.71,0,3.04-1.23,3.04-3.09,0-4.95-8.26-2.08-8.26-8.5,0-1.62.69-4.83,5.12-4.83,3.33,0,4.85,1.67,4.9,4.88h-2.16Z"></path>
  </g>
  <path class="cls-4" d="M58.33,104.25c0,14.44,6.5,22.2,20.59,22.2s20.69-8.74,20.69-22.2v-49.32h-8.67v49.32c0,9.83-2.76,15.13-12.02,15.13-8.57,0-11.92-4.81-11.92-15.13v-49.32h-8.67v49.32ZM109.93,125.08h8.28v-36.35c0-7.66,6.01-10.61,10.44-10.61,7.49,0,7.78,6.58,7.78,10.61v36.35h8.28v-37.33c0-6.19,0-16.7-13.89-16.7-5.12,0-10.64,2.75-12.81,7.56h-.2v-6.19h-7.88v52.66ZM158.01,72.42h-7.69v6.48h7.69v36.35c0,6.88,2.07,10.41,10.64,10.41,3.45,0,5.62-.39,6.7-.59v-6.78c-.89.1-1.87.29-3.65.29-4.34,0-5.42-1.67-5.42-5.9v-33.8h9.16v-6.48h-9.16v-15.33h-8.28v15.33ZM181.52,64.37h8.28v-9.43h-8.28v9.43ZM181.52,125.08h8.28v-52.66h-8.28v52.66ZM232.02,87.85c-.1-6.19-.69-16.8-16.06-16.8-9.16,0-16.85,4.72-16.85,14.54,0,10.9,6.6,12.77,13.01,14.93,6.4,2.16,12.91,3.64,12.91,10.71,0,7.47-6.11,8.74-8.77,8.74-8.08,0-9.85-5.8-9.85-12.18h-8.28c0,5.4.2,18.67,18.13,18.67,9.85,0,17.05-5.4,17.05-16.51,0-10.41-6.5-12.67-12.91-14.83-6.5-2.16-13.01-3.34-13.01-9.53,0-7.37,5.91-8.06,8.57-8.06,6.01,0,7.78,3.63,7.78,10.31h8.28Z"></path>
</svg>
